<svg id="Layer_3" height="512" viewBox="0 0 64 64" width="512" xmlns="http://www.w3.org/2000/svg" data-name="Layer 3"><path d="m58 9h-2.059a9 9 0 0 0 -17.882 0h-32.059a5.006 5.006 0 0 0 -5 5v30a5.006 5.006 0 0 0 5 5h17.612l-1.333 4h-1.279a5.006 5.006 0 0 0 -5 5v2a3 3 0 0 0 3 3h26a3 3 0 0 0 3-3v-2a5.006 5.006 0 0 0 -5-5h-1.279l-1.333-4h17.612a5.006 5.006 0 0 0 5-5v-30a5.006 5.006 0 0 0 -5-5zm-11-6a7 7 0 1 1 -7 7 7.008 7.008 0 0 1 7-7zm-41 8h32.059a9 9 0 0 0 17.882 0h2.059a3 3 0 0 1 3 3v27h-58v-27a3 3 0 0 1 3-3zm40 47v2a1 1 0 0 1 -1 1h-26a1 1 0 0 1 -1-1v-2a3 3 0 0 1 3-3h22a3 3 0 0 1 3 3zm-6.388-5h-15.224l1.333-4h12.558zm18.388-6h-52a3 3 0 0 1 -3-3v-1h58v1a3 3 0 0 1 -3 3z"/><path d="m8 38h24a3 3 0 0 0 3-3v-18a3 3 0 0 0 -3-3h-24a3 3 0 0 0 -3 3v18a3 3 0 0 0 3 3zm-1-21a1 1 0 0 1 1-1h24a1 1 0 0 1 1 1v18a1 1 0 0 1 -1 1h-24a1 1 0 0 1 -1-1z"/><path d="m9.445 26.832 6 4 1.11-1.664-4.755-3.168 4.752-3.168-1.11-1.664-6 4a1 1 0 0 0 0 1.664z"/><path d="m24.555 30.832 6-4a1 1 0 0 0 0-1.664l-6-4-1.11 1.664 4.755 3.168-4.752 3.168z"/><path d="m14.615 25h10.77v2h-10.77z" transform="matrix(.371 -.929 .929 .371 -11.565 34.925)"/><path d="m45 14a1 1 0 0 0 .707-.293l6-6-1.414-1.414-5.293 5.293-1.293-1.293-1.414 1.414 2 2a1 1 0 0 0 .707.293z"/><path d="m41 22h12v2h-12z"/><path d="m37 26h22v2h-22z"/><path d="m37 30h22v2h-22z"/><path d="m37 34h22v2h-22z"/><path d="m55 22h4v2h-4z"/></svg>